# xmcd
#
# Track frame offsets: 
#        150
#        21252
#        46445
#        59035
#        83512
#        102852
#        133872
#        154452
#        174327
#        194570
#        211834
#        231445
#
# Disc length: 3315 seconds
#
# Revision: 1
# Processed by: cddbd v1.5.2PL0 Copyright (c) Steve Scherf et al.
# Submitted via: ExactAudioCopy v0.99pb4
#
DISCID=aa0cf10c
DTITLE=B.B. and the Blues Shacks - Live at Lucerne Blues Festival
DYEAR=1998
DGENRE=Blues
TTITLE0=Tell me what's the Reason
TTITLE1=Ah'w Baby
TTITLE2=Waitin' on somebody
TTITLE3=By your Side
TTITLE4=Best kept secret
TTITLE5=I'll take care
TTITLE6=What love did to me
TTITLE7=One more chance with you
TTITLE8=Country Girl
TTITLE9=I'm on my way
TTITLE10=Just a little bit more
TTITLE11=Cross my heart
EXTD=
EXTT0=
EXTT1=
EXTT2=
EXTT3=
EXTT4=
EXTT5=
EXTT6=
EXTT7=
EXTT8=
EXTT9=
EXTT10=
EXTT11=
PLAYORDER=
